<svg width="723" height="1288" viewBox="0 0 723 1288" fill="none" xmlns="http://www.w3.org/2000/svg">
<mask id="path-2-inside-1" fill="white">
<path fill-rule="evenodd" clip-rule="evenodd" d="M235.136 3.10987C235.755 0.679362 238.777 -0.130868 240.305 1.72413L287.727 59.3025C287.935 59.5545 288.098 59.8421 288.21 60.1536L336.087 192.752C336.179 193.007 336.236 193.276 336.257 193.551L344.161 300.817C345.235 300.791 346.313 300.778 347.394 300.778C349.289 300.778 351.175 300.819 353.052 300.9L360.962 193.551C360.983 193.276 361.04 193.007 361.132 192.752L409.009 60.1536C409.121 59.8421 409.284 59.5544 409.492 59.3025L456.914 1.72413C458.442 -0.130872 461.464 0.679375 462.083 3.10988L481.285 78.5518C481.369 78.8819 481.4 79.2215 481.375 79.5565L470.866 222.174C470.846 222.449 470.789 222.718 470.697 222.973L431.601 331.252C467.99 360.701 491.683 408.735 491.683 462.989C491.683 516.258 468.843 563.53 433.572 593.103C486.119 626.156 527.499 688.094 547.539 764.586C562.878 761.489 580.29 760.113 598.634 760.919C605.611 761.226 612.41 761.835 618.972 762.715C618.272 758.209 617.751 753.571 617.424 748.823C613.888 697.483 634.375 652.762 663.185 648.934C691.995 645.107 718.216 683.624 721.753 734.964C724.124 769.385 715.696 800.832 701.201 818.973C694.822 843.965 647.619 861.735 591.774 859.28C580.849 858.8 570.36 857.579 560.534 855.736C560.674 860.204 560.744 864.697 560.744 869.213C560.744 901.962 557.046 933.495 550.206 963.028C586.488 982.662 597.321 1055.18 574.054 1129.33C572.406 1134.59 570.63 1139.71 568.737 1144.7C601.308 1154.94 623.736 1175.51 625.286 1200.78C627.706 1240.24 578.301 1276.21 514.937 1281.12C451.573 1286.03 398.245 1258.02 395.824 1218.57C394.782 1201.56 403.361 1185.21 418.533 1171.71C417.86 1166.16 417.436 1160.4 417.267 1154.46C395.014 1165.47 371.083 1171.45 346.16 1171.45C321.455 1171.45 297.725 1165.57 275.636 1154.75C275.64 1162.84 275.185 1170.63 274.286 1178.03C289.458 1191.53 298.037 1207.88 296.995 1224.89C294.574 1264.35 241.246 1292.35 177.882 1287.44C114.518 1282.53 65.113 1246.56 67.5333 1207.1C69.0832 1181.83 91.5111 1161.26 124.082 1151.02C122.19 1146.03 120.413 1140.91 118.765 1135.65C95.3064 1060.89 106.512 987.788 143.516 968.874C135.781 937.67 131.577 904.133 131.577 869.213C131.577 861.444 131.785 853.743 132.194 846.122C127.075 848.972 121.754 851.721 116.262 854.339C109.08 857.762 101.961 860.791 94.9928 863.42C99.4972 872.792 103.472 883.133 106.706 894.219C122.969 949.967 114.346 1003.47 87.4469 1013.71C60.5478 1023.96 25.5584 987.069 9.2958 931.321C1.95336 906.152 -0.316326 881.44 1.8785 860.962C-0.673401 853.511 1.8296 844.21 8.32839 834.161C12.8186 823.471 19.3217 815.728 27.6332 812.201C42.5195 798.655 62.7566 785.153 86.107 774.023C108.089 763.545 129.488 756.762 147.768 753.831C168.959 681.623 209.443 623.504 260.169 592.218C225.493 562.592 203.105 515.73 203.105 462.989C203.105 407.801 227.62 359.05 265.075 329.749L226.522 222.973C226.43 222.718 226.373 222.449 226.353 222.174L215.844 79.5565C215.819 79.2215 215.85 78.8819 215.934 78.5519L235.136 3.10987Z"/>
</mask>
<path fill-rule="evenodd" clip-rule="evenodd" d="M235.136 3.10987C235.755 0.679362 238.777 -0.130868 240.305 1.72413L287.727 59.3025C287.935 59.5545 288.098 59.8421 288.21 60.1536L336.087 192.752C336.179 193.007 336.236 193.276 336.257 193.551L344.161 300.817C345.235 300.791 346.313 300.778 347.394 300.778C349.289 300.778 351.175 300.819 353.052 300.9L360.962 193.551C360.983 193.276 361.04 193.007 361.132 192.752L409.009 60.1536C409.121 59.8421 409.284 59.5544 409.492 59.3025L456.914 1.72413C458.442 -0.130872 461.464 0.679375 462.083 3.10988L481.285 78.5518C481.369 78.8819 481.4 79.2215 481.375 79.5565L470.866 222.174C470.846 222.449 470.789 222.718 470.697 222.973L431.601 331.252C467.99 360.701 491.683 408.735 491.683 462.989C491.683 516.258 468.843 563.53 433.572 593.103C486.119 626.156 527.499 688.094 547.539 764.586C562.878 761.489 580.29 760.113 598.634 760.919C605.611 761.226 612.41 761.835 618.972 762.715C618.272 758.209 617.751 753.571 617.424 748.823C613.888 697.483 634.375 652.762 663.185 648.934C691.995 645.107 718.216 683.624 721.753 734.964C724.124 769.385 715.696 800.832 701.201 818.973C694.822 843.965 647.619 861.735 591.774 859.28C580.849 858.8 570.36 857.579 560.534 855.736C560.674 860.204 560.744 864.697 560.744 869.213C560.744 901.962 557.046 933.495 550.206 963.028C586.488 982.662 597.321 1055.18 574.054 1129.33C572.406 1134.59 570.63 1139.71 568.737 1144.7C601.308 1154.94 623.736 1175.51 625.286 1200.78C627.706 1240.24 578.301 1276.21 514.937 1281.12C451.573 1286.03 398.245 1258.02 395.824 1218.57C394.782 1201.56 403.361 1185.21 418.533 1171.71C417.86 1166.16 417.436 1160.4 417.267 1154.46C395.014 1165.47 371.083 1171.45 346.16 1171.45C321.455 1171.45 297.725 1165.57 275.636 1154.75C275.64 1162.84 275.185 1170.63 274.286 1178.03C289.458 1191.53 298.037 1207.88 296.995 1224.89C294.574 1264.35 241.246 1292.35 177.882 1287.44C114.518 1282.53 65.113 1246.56 67.5333 1207.1C69.0832 1181.83 91.5111 1161.26 124.082 1151.02C122.19 1146.03 120.413 1140.91 118.765 1135.65C95.3064 1060.89 106.512 987.788 143.516 968.874C135.781 937.67 131.577 904.133 131.577 869.213C131.577 861.444 131.785 853.743 132.194 846.122C127.075 848.972 121.754 851.721 116.262 854.339C109.08 857.762 101.961 860.791 94.9928 863.42C99.4972 872.792 103.472 883.133 106.706 894.219C122.969 949.967 114.346 1003.47 87.4469 1013.71C60.5478 1023.96 25.5584 987.069 9.2958 931.321C1.95336 906.152 -0.316326 881.44 1.8785 860.962C-0.673401 853.511 1.8296 844.21 8.32839 834.161C12.8186 823.471 19.3217 815.728 27.6332 812.201C42.5195 798.655 62.7566 785.153 86.107 774.023C108.089 763.545 129.488 756.762 147.768 753.831C168.959 681.623 209.443 623.504 260.169 592.218C225.493 562.592 203.105 515.73 203.105 462.989C203.105 407.801 227.62 359.05 265.075 329.749L226.522 222.973C226.43 222.718 226.373 222.449 226.353 222.174L215.844 79.5565C215.819 79.2215 215.85 78.8819 215.934 78.5519L235.136 3.10987Z" fill="white"/>
<path d="M240.305 1.72413L241.077 1.08839L241.077 1.08839L240.305 1.72413ZM235.136 3.10987L236.106 3.35654L236.106 3.35654L235.136 3.10987ZM287.727 59.3025L286.955 59.9383L286.955 59.9383L287.727 59.3025ZM288.21 60.1536L287.27 60.4931L287.27 60.4932L288.21 60.1536ZM336.087 192.752L337.028 192.412L337.028 192.412L336.087 192.752ZM336.257 193.551L337.254 193.478L337.254 193.478L336.257 193.551ZM344.161 300.817L343.163 300.891L343.233 301.841L344.185 301.817L344.161 300.817ZM353.052 300.9L353.009 301.899L353.978 301.941L354.05 300.973L353.052 300.9ZM360.962 193.551L361.96 193.625L361.96 193.625L360.962 193.551ZM361.132 192.752L360.191 192.412L360.191 192.412L361.132 192.752ZM409.009 60.1536L409.949 60.4932L409.949 60.4931L409.009 60.1536ZM409.492 59.3025L408.72 58.6668L408.72 58.6668L409.492 59.3025ZM456.914 1.72413L456.142 1.08838L456.142 1.08838L456.914 1.72413ZM462.083 3.10988L461.113 3.35656L461.113 3.35656L462.083 3.10988ZM481.285 78.5518L482.254 78.3052L482.254 78.3052L481.285 78.5518ZM481.375 79.5565L480.378 79.483L480.378 79.483L481.375 79.5565ZM470.866 222.174L471.864 222.247L471.864 222.247L470.866 222.174ZM470.697 222.973L469.756 222.634L469.756 222.634L470.697 222.973ZM431.601 331.252L430.66 330.912L430.419 331.582L430.972 332.029L431.601 331.252ZM433.572 593.103L432.93 592.337L431.878 593.219L433.04 593.949L433.572 593.103ZM547.539 764.586L546.571 764.84L546.811 765.753L547.737 765.566L547.539 764.586ZM598.634 760.919L598.678 759.92L598.678 759.92L598.634 760.919ZM618.972 762.715L618.839 763.706L620.165 763.884L619.96 762.561L618.972 762.715ZM617.424 748.823L616.427 748.892L616.427 748.892L617.424 748.823ZM663.185 648.934L663.317 649.926L663.317 649.926L663.185 648.934ZM721.753 734.964L720.755 735.033L720.755 735.033L721.753 734.964ZM701.201 818.973L700.42 818.348L700.286 818.517L700.232 818.725L701.201 818.973ZM591.774 859.28L591.817 858.281L591.817 858.281L591.774 859.28ZM560.534 855.736L560.719 854.753L559.496 854.524L559.535 855.767L560.534 855.736ZM550.206 963.028L549.232 962.802L549.06 963.545L549.73 963.907L550.206 963.028ZM574.054 1129.33L575.008 1129.63L575.008 1129.63L574.054 1129.33ZM568.737 1144.7L567.802 1144.34L567.426 1145.33L568.437 1145.65L568.737 1144.7ZM625.286 1200.78L626.284 1200.72L626.284 1200.72L625.286 1200.78ZM395.824 1218.57L394.826 1218.63L394.826 1218.63L395.824 1218.57ZM418.533 1171.71L419.198 1172.45L419.589 1172.11L419.526 1171.59L418.533 1171.71ZM417.267 1154.46L418.267 1154.44L418.222 1152.88L416.824 1153.57L417.267 1154.46ZM275.636 1154.75L276.076 1153.85L274.636 1153.15L274.636 1154.75L275.636 1154.75ZM274.286 1178.03L273.294 1177.91L273.23 1178.43L273.621 1178.77L274.286 1178.03ZM296.995 1224.89L297.993 1224.95L297.993 1224.95L296.995 1224.89ZM177.882 1287.44L177.959 1286.44L177.882 1287.44ZM67.5333 1207.1L66.5351 1207.04L66.5351 1207.04L67.5333 1207.1ZM124.082 1151.02L124.382 1151.97L125.394 1151.65L125.017 1150.66L124.082 1151.02ZM118.765 1135.65L119.719 1135.35L119.719 1135.35L118.765 1135.65ZM143.516 968.874L143.971 969.765L144.678 969.404L144.487 968.634L143.516 968.874ZM132.194 846.122L133.192 846.175L133.289 844.367L131.707 845.248L132.194 846.122ZM116.262 854.339L115.832 853.437L115.832 853.437L116.262 854.339ZM94.9928 863.42L94.6398 862.484L93.6187 862.87L94.0914 863.853L94.9928 863.42ZM106.706 894.219L105.746 894.499L105.746 894.499L106.706 894.219ZM87.4469 1013.71L87.091 1012.78L87.091 1012.78L87.4469 1013.71ZM9.2958 931.321L8.33581 931.601L8.33581 931.601L9.2958 931.321ZM1.8785 860.962L2.8728 861.068L2.89645 860.848L2.82455 860.638L1.8785 860.962ZM8.32839 834.161L9.1681 834.704L9.21612 834.629L9.25036 834.548L8.32839 834.161ZM27.6332 812.201L28.0239 813.122L28.1805 813.055L28.3063 812.941L27.6332 812.201ZM86.107 774.023L86.5373 774.926L86.5373 774.926L86.107 774.023ZM147.768 753.831L147.926 754.818L148.55 754.718L148.727 754.112L147.768 753.831ZM260.169 592.218L260.694 593.069L261.862 592.349L260.819 591.458L260.169 592.218ZM265.075 329.749L265.691 330.536L266.262 330.09L266.016 329.409L265.075 329.749ZM226.522 222.973L227.463 222.634L227.463 222.634L226.522 222.973ZM226.353 222.174L225.355 222.247L225.355 222.247L226.353 222.174ZM215.844 79.5565L216.841 79.483L216.841 79.483L215.844 79.5565ZM215.934 78.5519L214.965 78.3052L214.965 78.3052L215.934 78.5519ZM241.077 1.08839C238.95 -1.49359 234.957 -0.23947 234.167 2.8632L236.106 3.35654C236.553 1.59819 238.604 1.23185 239.533 2.35988L241.077 1.08839ZM288.499 58.6668L241.077 1.08839L239.533 2.35988L286.955 59.9383L288.499 58.6668ZM289.151 59.814C289 59.3965 288.78 59.0084 288.499 58.6668L286.955 59.9383C287.089 60.1006 287.196 60.2877 287.27 60.4931L289.151 59.814ZM337.028 192.412L289.151 59.814L287.27 60.4932L335.147 193.091L337.028 192.412ZM337.254 193.478C337.227 193.113 337.151 192.755 337.028 192.412L335.147 193.091C335.207 193.26 335.246 193.439 335.259 193.625L337.254 193.478ZM345.158 300.744L337.254 193.478L335.259 193.625L343.163 300.891L345.158 300.744ZM347.394 299.778C346.305 299.778 345.219 299.791 344.136 299.818L344.185 301.817C345.252 301.791 346.321 301.778 347.394 301.778V299.778ZM353.096 299.901C351.204 299.819 349.303 299.778 347.394 299.778V301.778C349.274 301.778 351.146 301.818 353.009 301.899L353.096 299.901ZM354.05 300.973L361.96 193.625L359.965 193.478L352.055 300.826L354.05 300.973ZM361.96 193.625C361.973 193.439 362.012 193.26 362.072 193.091L360.191 192.412C360.068 192.755 359.992 193.113 359.965 193.478L361.96 193.625ZM362.072 193.091L409.949 60.4932L408.068 59.8139L360.191 192.412L362.072 193.091ZM409.949 60.4931C410.023 60.2877 410.13 60.1006 410.264 59.9382L408.72 58.6668C408.439 59.0083 408.219 59.3964 408.068 59.814L409.949 60.4931ZM410.264 59.9383L457.686 2.35987L456.142 1.08838L408.72 58.6668L410.264 59.9383ZM457.686 2.35987C458.615 1.23186 460.666 1.5982 461.113 3.35656L463.052 2.86321C462.262 -0.239445 458.269 -1.4936 456.142 1.08838L457.686 2.35987ZM461.113 3.35656L480.316 78.7985L482.254 78.3052L463.052 2.86321L461.113 3.35656ZM480.316 78.7985C480.374 79.0255 480.394 79.257 480.378 79.483L482.372 79.63C482.405 79.1859 482.365 78.7383 482.254 78.3052L480.316 78.7985ZM480.378 79.483L469.869 222.1L471.864 222.247L482.372 79.63L480.378 79.483ZM469.869 222.1C469.855 222.286 469.817 222.465 469.756 222.634L471.637 223.313C471.761 222.97 471.837 222.612 471.864 222.247L469.869 222.1ZM469.756 222.634L430.66 330.912L432.542 331.592L471.637 223.313L469.756 222.634ZM492.683 462.989C492.683 408.446 468.864 360.122 432.23 330.475L430.972 332.029C467.116 361.28 490.683 409.023 490.683 462.989H492.683ZM434.215 593.869C469.722 564.098 492.683 516.541 492.683 462.989H490.683C490.683 515.975 467.965 562.961 432.93 592.337L434.215 593.869ZM548.506 764.333C528.42 687.661 486.919 625.477 434.105 592.256L433.04 593.949C485.32 626.834 526.579 688.526 546.571 764.84L548.506 764.333ZM598.678 759.92C580.258 759.111 562.765 760.491 547.341 763.606L547.737 765.566C562.991 762.486 580.321 761.115 598.59 761.919L598.678 759.92ZM619.104 761.724C612.513 760.84 605.684 760.229 598.678 759.92L598.59 761.919C605.538 762.224 612.307 762.83 618.839 763.706L619.104 761.724ZM616.427 748.892C616.756 753.668 617.28 758.334 617.983 762.868L619.96 762.561C619.265 758.084 618.747 753.474 618.422 748.755L616.427 748.892ZM663.053 647.943C648.152 649.923 635.609 662.432 627.266 680.645C618.905 698.896 614.649 723.082 616.427 748.892L618.422 748.755C616.663 723.225 620.883 699.38 629.084 681.478C637.302 663.538 649.408 651.773 663.317 649.926L663.053 647.943ZM722.751 734.895C720.973 709.088 713.491 686.443 702.773 670.699C692.07 654.977 677.991 645.959 663.053 647.943L663.317 649.926C677.188 648.083 690.626 656.41 701.12 671.824C711.599 687.217 718.997 709.501 720.755 735.033L722.751 734.895ZM701.983 819.597C716.681 801.201 725.133 769.48 722.751 734.895L720.755 735.033C723.115 769.291 714.712 800.462 700.42 818.348L701.983 819.597ZM591.73 860.279C619.76 861.511 645.659 857.671 665.385 850.357C685.039 843.069 698.853 832.216 702.17 819.22L700.232 818.725C697.17 830.722 684.193 841.25 664.69 848.482C645.258 855.687 619.633 859.504 591.817 858.281L591.73 860.279ZM560.35 856.719C570.224 858.571 580.759 859.797 591.73 860.279L591.817 858.281C580.939 857.803 570.497 856.587 560.719 854.753L560.35 856.719ZM561.744 869.213C561.744 864.686 561.673 860.183 561.534 855.705L559.535 855.767C559.674 860.225 559.744 864.707 559.744 869.213H561.744ZM551.18 963.254C558.037 933.646 561.744 902.037 561.744 869.213H559.744C559.744 901.887 556.054 933.344 549.232 962.802L551.18 963.254ZM575.008 1129.63C586.68 1092.43 589.81 1055.61 585.451 1025.59C581.098 995.618 569.236 972.189 550.682 962.149L549.73 963.907C567.458 973.501 579.154 996.146 583.471 1025.88C587.782 1055.56 584.696 1092.08 573.1 1129.03L575.008 1129.63ZM569.672 1145.05C571.572 1140.05 573.355 1134.9 575.008 1129.63L573.1 1129.03C571.458 1134.27 569.688 1139.37 567.802 1144.34L569.672 1145.05ZM626.284 1200.72C624.696 1174.84 601.772 1154.03 569.037 1143.74L568.437 1145.65C600.844 1155.84 622.775 1176.18 624.287 1200.84L626.284 1200.72ZM515.015 1282.12C546.853 1279.65 575.229 1269.38 595.369 1254.71C615.494 1240.06 627.522 1220.91 626.284 1200.72L624.287 1200.84C625.469 1220.1 614.006 1238.67 594.192 1253.1C574.394 1267.51 546.386 1277.68 514.86 1280.12L515.015 1282.12ZM394.826 1218.63C396.066 1238.83 410.328 1255.95 432.062 1267.37C453.81 1278.79 483.177 1284.58 515.015 1282.12L514.86 1280.12C483.334 1282.57 454.354 1276.82 432.992 1265.6C411.616 1254.37 398.004 1237.76 396.823 1218.5L394.826 1218.63ZM417.868 1170.96C402.548 1184.59 393.759 1201.22 394.826 1218.63L396.823 1218.5C395.804 1201.9 404.174 1185.82 419.198 1172.45L417.868 1170.96ZM416.267 1154.49C416.437 1160.46 416.864 1166.25 417.54 1171.83L419.526 1171.59C418.857 1166.07 418.435 1160.35 418.267 1154.44L416.267 1154.49ZM346.16 1172.45C371.247 1172.45 395.329 1166.43 417.71 1155.36L416.824 1153.57C394.699 1164.51 370.919 1170.45 346.16 1170.45V1172.45ZM275.196 1155.65C297.412 1166.53 321.292 1172.45 346.16 1172.45V1170.45C321.617 1170.45 298.037 1164.61 276.076 1153.85L275.196 1155.65ZM275.279 1178.15C276.183 1170.7 276.64 1162.87 276.636 1154.75L274.636 1154.75C274.64 1162.8 274.187 1170.55 273.294 1177.91L275.279 1178.15ZM297.993 1224.95C299.06 1207.54 290.271 1190.91 274.951 1177.28L273.621 1178.77C288.645 1192.14 297.015 1208.22 295.996 1224.83L297.993 1224.95ZM177.804 1288.44C209.642 1290.91 239.009 1285.11 260.757 1273.69C282.491 1262.27 296.753 1245.15 297.993 1224.95L295.996 1224.83C294.815 1244.08 281.203 1260.69 259.827 1271.92C238.465 1283.14 209.485 1288.89 177.959 1286.44L177.804 1288.44ZM66.5351 1207.04C65.2964 1227.23 77.3251 1246.38 97.4498 1261.03C117.59 1275.7 145.966 1285.97 177.804 1288.44L177.959 1286.44C146.433 1284 118.425 1273.83 98.627 1259.42C78.8134 1244.99 67.3499 1226.42 68.5314 1207.16L66.5351 1207.04ZM123.783 1150.06C91.0472 1160.35 68.1226 1181.16 66.5351 1207.04L68.5314 1207.16C70.0438 1182.5 91.9751 1162.16 124.382 1151.97L123.783 1150.06ZM117.811 1135.95C119.465 1141.22 121.248 1146.37 123.148 1151.37L125.017 1150.66C123.132 1145.7 121.362 1140.59 119.719 1135.35L117.811 1135.95ZM143.061 967.984C124.131 977.659 111.991 1001.06 107.478 1031.17C102.958 1061.33 106.043 1098.45 117.811 1135.95L119.719 1135.35C108.028 1098.09 104.987 1061.28 109.456 1031.47C113.933 1001.6 125.897 979.003 143.971 969.765L143.061 967.984ZM130.577 869.213C130.577 904.213 134.791 937.831 142.546 969.115L144.487 968.634C136.772 937.509 132.577 904.053 132.577 869.213H130.577ZM131.195 846.068C130.785 853.708 130.577 861.426 130.577 869.213H132.577C132.577 861.462 132.784 853.779 133.192 846.175L131.195 846.068ZM116.692 855.242C122.204 852.615 127.543 849.856 132.68 846.995L131.707 845.248C126.607 848.088 121.305 850.828 115.832 853.437L116.692 855.242ZM95.3457 864.356C102.341 861.717 109.486 858.677 116.692 855.242L115.832 853.437C108.675 856.848 101.582 859.866 94.6398 862.484L95.3457 864.356ZM107.666 893.939C104.417 882.802 100.423 872.41 95.8941 862.987L94.0914 863.853C98.5712 873.174 102.527 883.463 105.746 894.499L107.666 893.939ZM87.8028 1014.65C101.772 1009.32 110.748 992.909 114.249 971.187C117.762 949.392 115.831 921.93 107.666 893.939L105.746 894.499C113.843 922.257 115.732 949.417 112.275 970.869C108.805 992.395 100.021 1007.85 87.091 1012.78L87.8028 1014.65ZM8.33581 931.601C16.5002 959.589 29.38 982.9 43.6571 997.952C57.8913 1012.96 73.7753 1019.99 87.8028 1014.65L87.091 1012.78C74.2194 1017.68 59.1591 1011.39 45.1082 996.575C31.1001 981.807 18.3539 958.802 10.2558 931.041L8.33581 931.601ZM0.884191 860.855C-1.32637 881.481 0.961911 906.324 8.33581 931.601L10.2558 931.041C2.94482 905.979 0.693721 881.4 2.8728 861.068L0.884191 860.855ZM7.48868 833.618C0.93273 843.755 -1.76954 853.396 0.932445 861.286L2.82455 860.638C0.422741 853.625 2.72647 844.665 9.1681 834.704L7.48868 833.618ZM27.2426 811.28C18.6085 814.944 11.9563 822.941 7.40642 833.773L9.25036 834.548C13.6808 824 20.0348 816.512 28.0239 813.122L27.2426 811.28ZM85.6767 773.12C62.2511 784.286 41.9291 797.84 26.9602 811.461L28.3063 812.941C43.1099 799.469 63.262 786.02 86.5373 774.926L85.6767 773.12ZM147.609 752.843C129.22 755.792 107.729 762.608 85.6767 773.12L86.5373 774.926C108.448 764.481 129.756 757.732 147.926 754.818L147.609 752.843ZM259.644 591.367C208.657 622.813 168.051 681.168 146.808 753.549L148.727 754.112C169.868 682.078 210.228 624.194 260.694 593.069L259.644 591.367ZM202.105 462.989C202.105 516.011 224.613 563.154 259.52 592.978L260.819 591.458C226.374 562.029 204.105 515.449 204.105 462.989H202.105ZM264.459 328.961C226.75 358.461 202.105 407.509 202.105 462.989H204.105C204.105 408.094 228.49 359.64 265.691 330.536L264.459 328.961ZM225.582 223.313L264.135 330.088L266.016 329.409L227.463 222.634L225.582 223.313ZM225.355 222.247C225.382 222.612 225.458 222.97 225.582 223.313L227.463 222.634C227.402 222.465 227.364 222.286 227.35 222.1L225.355 222.247ZM214.847 79.63L225.355 222.247L227.35 222.1L216.841 79.483L214.847 79.63ZM214.965 78.3052C214.854 78.7383 214.814 79.1859 214.847 79.63L216.841 79.483C216.825 79.257 216.845 79.0256 216.903 78.7985L214.965 78.3052ZM234.167 2.8632L214.965 78.3052L216.903 78.7985L236.106 3.35654L234.167 2.8632Z" fill="black" mask="url(#path-2-inside-1)"/>
<path d="M450.651 42.5748L423.264 75.8272C423.091 76.0371 422.955 76.2768 422.861 76.5364L393.761 157.13C393.684 157.343 393.637 157.567 393.62 157.796L387.233 244.48C387.212 244.759 387.237 245.042 387.307 245.317L398.397 288.886C398.913 290.911 401.431 291.586 402.704 290.041L430.091 256.788C430.264 256.578 430.4 256.339 430.494 256.079L459.594 175.485C459.671 175.272 459.718 175.048 459.735 174.819L466.122 88.1356C466.143 87.8564 466.118 87.5735 466.048 87.2984L454.958 43.7296C454.442 41.7042 451.924 41.029 450.651 42.5748Z" fill="white" stroke="black"/>
<path d="M252.63 60.1822L280.017 93.4346C280.19 93.6445 280.326 93.8842 280.42 94.1438L309.519 174.737C309.596 174.95 309.644 175.175 309.661 175.404L316.048 262.087C316.069 262.366 316.043 262.649 315.973 262.924L304.883 306.493C304.368 308.519 301.85 309.194 300.576 307.648L273.189 274.396C273.016 274.186 272.88 273.946 272.787 273.686L243.687 193.093C243.61 192.88 243.563 192.656 243.546 192.426L237.158 105.743C237.138 105.464 237.163 105.181 237.233 104.906L248.323 61.337C248.839 59.3116 251.357 58.6364 252.63 60.1822Z" fill="white" stroke="black"/>
<path d="M444.319 894.169C444.319 946.939 433.288 994.689 415.478 1029.23C397.655 1063.79 373.121 1085 346.16 1085C319.199 1085 294.665 1063.79 276.842 1029.23C259.032 994.689 248.001 946.939 248.001 894.169C248.001 841.398 259.032 793.648 276.842 759.109C294.665 724.545 319.199 703.342 346.16 703.342C373.121 703.342 397.655 724.545 415.478 759.109C433.288 793.648 444.319 841.398 444.319 894.169Z" fill="white" stroke="black"/>
<path d="M434.454 409.388C434.454 423.712 430.2 436.66 423.348 446.014C416.495 455.369 407.069 461.103 396.704 461.103C386.34 461.103 376.914 455.369 370.061 446.014C363.209 436.66 358.955 423.712 358.955 409.388C358.955 395.065 363.209 382.117 370.061 372.762C376.914 363.407 386.34 357.673 396.704 357.673C407.069 357.673 416.495 363.407 423.348 372.762C430.2 382.117 434.454 395.065 434.454 409.388Z" fill="white" stroke="black"/>
<path d="M407.133 423.21C407.133 432.023 404.56 439.98 400.426 445.722C396.29 451.465 390.622 454.96 384.41 454.96C378.199 454.96 372.53 451.465 368.395 445.722C364.26 439.98 361.688 432.023 361.688 423.21C361.688 414.397 364.26 406.44 368.395 400.698C372.53 394.955 378.199 391.459 384.41 391.459C390.622 391.459 396.29 394.955 400.426 400.698C404.56 406.44 407.133 414.397 407.133 423.21Z" fill="white" stroke="black"/>
<path d="M333.366 409.388C333.366 423.712 329.112 436.66 322.26 446.014C315.407 455.369 305.981 461.103 295.617 461.103C285.252 461.103 275.826 455.369 268.974 446.014C262.121 436.66 257.867 423.712 257.867 409.388C257.867 395.065 262.121 382.117 268.974 372.762C275.826 363.407 285.252 357.673 295.617 357.673C305.981 357.673 315.407 363.407 322.26 372.762C329.112 382.117 333.366 395.065 333.366 409.388Z" fill="white" stroke="black"/>
<path d="M333.366 423.21C333.366 432.023 330.793 439.98 326.658 445.722C322.523 451.465 316.854 454.96 310.643 454.96C304.432 454.96 298.763 451.465 294.627 445.722C290.493 439.98 287.92 432.023 287.92 423.21C287.92 414.397 290.493 406.44 294.627 400.698C298.763 394.955 304.432 391.459 310.643 391.459C316.854 391.459 322.523 394.955 326.658 400.698C330.793 406.44 333.366 414.397 333.366 423.21Z" fill="white" stroke="black"/>
<path d="M373.778 505.239C373.778 519.463 370.644 532.315 365.603 541.594C360.551 550.891 353.655 556.49 346.16 556.49C338.665 556.49 331.769 550.891 326.717 541.594C321.676 532.315 318.542 519.463 318.542 505.239C318.542 491.016 321.676 478.164 326.717 468.885C331.769 459.587 338.665 453.989 346.16 453.989C353.655 453.989 360.551 459.587 365.603 468.885C370.644 478.164 373.778 491.016 373.778 505.239Z" fill="white" stroke="black"/>
<mask id="path-12-inside-2" fill="white">
<path fill-rule="evenodd" clip-rule="evenodd" d="M352.203 537.896L338.078 537.034L330.958 511.674L326.579 513.463C326.593 512.744 326.624 512.02 326.673 511.291C327.713 496.04 336.438 484.654 346.162 485.859C355.399 487.004 362.215 499.099 361.983 513.381L359.364 511.97L350.631 536.921L352.297 537.819C352.266 537.845 352.234 537.871 352.203 537.896Z"/>
</mask>
<path fill-rule="evenodd" clip-rule="evenodd" d="M352.203 537.896L338.078 537.034L330.958 511.674L326.579 513.463C326.593 512.744 326.624 512.02 326.673 511.291C327.713 496.04 336.438 484.654 346.162 485.859C355.399 487.004 362.215 499.099 361.983 513.381L359.364 511.97L350.631 536.921L352.297 537.819C352.266 537.845 352.234 537.871 352.203 537.896Z" fill="white"/>
<path d="M338.078 537.034L337.119 537.275L337.32 537.99L338.052 538.035L338.078 537.034ZM352.203 537.896L352.178 538.898L352.561 538.921L352.852 538.68L352.203 537.896ZM330.958 511.674L331.917 511.433L331.603 510.314L330.556 510.742L330.958 511.674ZM326.579 513.463L325.582 513.409L325.553 514.978L326.982 514.394L326.579 513.463ZM326.673 511.291L327.668 511.394L327.668 511.394L326.673 511.291ZM346.162 485.859L346.074 486.855L346.162 485.859ZM361.983 513.381L361.537 514.262L362.954 515.025L362.98 513.432L361.983 513.381ZM359.364 511.97L359.811 511.089L358.796 510.543L358.423 511.608L359.364 511.97ZM350.631 536.921L349.689 536.559L349.402 537.38L350.185 537.802L350.631 536.921ZM352.297 537.819L352.951 538.598L354.075 537.655L352.743 536.938L352.297 537.819ZM338.052 538.035L352.178 538.898L352.229 536.895L338.103 536.032L338.052 538.035ZM330 511.915L337.119 537.275L339.036 536.793L331.917 511.433L330 511.915ZM326.982 514.394L331.361 512.605L330.556 510.742L326.177 512.532L326.982 514.394ZM325.679 511.187C325.628 511.933 325.596 512.674 325.582 513.409L327.576 513.517C327.589 512.814 327.619 512.106 327.668 511.394L325.679 511.187ZM346.25 484.863C340.929 484.204 336.017 487.007 332.364 491.774C328.704 496.55 326.21 503.401 325.679 511.187L327.668 511.394C328.177 503.93 330.565 497.462 333.958 493.034C337.358 488.597 341.671 486.309 346.074 486.855L346.25 484.863ZM362.98 513.432C363.098 506.138 361.419 499.355 358.483 494.217C355.553 489.087 351.295 485.489 346.25 484.863L346.074 486.855C350.267 487.374 354.035 490.395 356.764 495.17C359.487 499.937 361.1 506.343 360.986 513.329L362.98 513.432ZM362.429 512.5L359.811 511.089L358.918 512.851L361.537 514.262L362.429 512.5ZM358.423 511.608L349.689 536.559L351.573 537.284L360.306 512.333L358.423 511.608ZM350.185 537.802L351.85 538.699L352.743 536.938L351.077 536.041L350.185 537.802ZM352.852 538.68C352.885 538.653 352.918 538.626 352.951 538.598L351.643 537.039C351.613 537.064 351.584 537.088 351.554 537.112L352.852 538.68Z" fill="black" mask="url(#path-12-inside-2)"/>
<line x1="346.876" y1="535.196" x2="346.876" y2="487.759" stroke="black"/>
<path d="M345.66 492.302C345.66 504.035 337.925 513.364 328.586 513.364C319.248 513.364 311.513 504.035 311.513 492.302C311.513 480.569 319.248 471.239 328.586 471.239C337.925 471.239 345.66 480.569 345.66 492.302Z" fill="white" stroke="black"/>
<path d="M380.808 492.302C380.808 504.035 373.073 513.364 363.734 513.364C354.395 513.364 346.66 504.035 346.66 492.302C346.66 480.569 354.395 471.239 363.734 471.239C373.073 471.239 380.808 480.569 380.808 492.302Z" fill="white" stroke="black"/>
</svg>
